<svg xmlns="http://www.w3.org/2000/svg" width="122.18" height="104.809" viewBox="0 0 122.18 104.809"><path d="M529.045-48.824V53.941h-2.919V-48.824ZM599.258,55.109a48.589,48.589,0,0,1-25.326-6.642,46.011,46.011,0,0,1-17.444-18.612A57.58,57.58,0,0,1,550.211,2.7a57.58,57.58,0,0,1,6.277-27.151,46.011,46.011,0,0,1,17.444-18.612A48.589,48.589,0,0,1,599.258-49.7a48.588,48.588,0,0,1,25.326,6.642,46.01,46.01,0,0,1,17.444,18.612A57.58,57.58,0,0,1,648.3,2.7a57.58,57.58,0,0,1-6.277,27.151,46.011,46.011,0,0,1-17.444,18.612A48.589,48.589,0,0,1,599.258,55.109Zm0-2.628a45.925,45.925,0,0,0,23.356-6.058,42.916,42.916,0,0,0,16.568-17.371Q645.24,17.74,645.24,2.7t-6.058-26.348a42.916,42.916,0,0,0-16.568-17.371,45.925,45.925,0,0,0-23.356-6.058A45.925,45.925,0,0,0,575.9-41.015a42.916,42.916,0,0,0-16.568,17.371Q553.276-12.331,553.276,2.7t6.058,26.348A42.916,42.916,0,0,0,575.9,46.423,45.925,45.925,0,0,0,599.258,52.481Z" transform="translate(-526.125 49.7)" fill="#e47828"/></svg>