<svg xmlns="http://www.w3.org/2000/svg" width="24.023" height="15.78" viewBox="0 0 24.023 15.78"><g transform="translate(-296.413 -9.33)"><path d="M785.956,6720.04a12.2,12.2,0,0,1,5.314,1.2,13.77,13.77,0,0,1,3.688,2.621,15.212,15.212,0,0,1,2.859,3.813l.1.206-.091.21a14.071,14.071,0,0,1-2.733,3.868,13.121,13.121,0,0,1-3.679,2.655,12.95,12.95,0,0,1-10.93,0,13.363,13.363,0,0,1-3.711-2.653,14.328,14.328,0,0,1-2.783-3.865l-.1-.215.1-.211a15.5,15.5,0,0,1,2.908-3.811,14.026,14.026,0,0,1,3.721-2.619A12.3,12.3,0,0,1,785.956,6720.04Zm10.852,7.861a14.975,14.975,0,0,0-2.575-3.354,12.765,12.765,0,0,0-3.414-2.417,11.426,11.426,0,0,0-9.762.009,13.036,13.036,0,0,0-3.455,2.434,15.2,15.2,0,0,0-2.594,3.326,14.059,14.059,0,0,0,2.5,3.377,12.342,12.342,0,0,0,3.427,2.44,11.951,11.951,0,0,0,10.049-.009,12.117,12.117,0,0,0,3.4-2.455A13.7,13.7,0,0,0,796.808,6727.9Z" transform="translate(-477.481 -6710.71)" fill="#e47828"/><path d="M4,1A3,3,0,1,0,7,4,3,3,0,0,0,4,1M4,0A4,4,0,1,1,0,4,4,4,0,0,1,4,0Z" transform="translate(304.466 13.33)" fill="#e47828"/></g></svg>