<svg xmlns="http://www.w3.org/2000/svg" width="25.574" height="18" viewBox="0 0 25.574 18"><g transform="translate(-4385.934 -3505.705)"><path d="M4387.558,3523.705a1.645,1.645,0,0,1-1.624-1.625v-14.6a1.91,1.91,0,0,1,1.772-1.772h8.474l1.28,1.28h9.74a1.622,1.622,0,0,1,.934.284,1.735,1.735,0,0,1,.617.7h-11.7l-1.28-1.28h-8.061a.76.76,0,0,0-.788.788v14.456a.691.691,0,0,0,.136.443,1.165,1.165,0,0,0,.357.295l3.14-12.437h20.957l-3.1,12.27a1.586,1.586,0,0,1-.593.9,1.773,1.773,0,0,1-1.054.3Zm.884-.985h18.894l2.835-11.5h-18.894Zm0,0,2.835-11.5Zm-1.524-14.751v0Z" fill="#fff"/></g></svg>