<svg xmlns="http://www.w3.org/2000/svg" width="18.9" height="14.7" viewBox="0 0 18.9 14.7"><path d="M2614.815,3728.951l5.618-3.622-5.618-3.623Zm-6.064,3.754a1.434,1.434,0,0,1-1.443-1.444v-11.812a1.434,1.434,0,0,1,1.443-1.444h16.013a1.434,1.434,0,0,1,1.444,1.444v11.812a1.434,1.434,0,0,1-1.444,1.444Zm0-.814h16.013a.676.676,0,0,0,.63-.63v-11.812a.678.678,0,0,0-.63-.63h-16.013a.678.678,0,0,0-.63.63v11.812a.676.676,0,0,0,.63.63Zm-.63,0v0Z" transform="translate(-2607.308 -3718.005)" fill="#fff" opacity="0.5"/></svg>