<svg xmlns="http://www.w3.org/2000/svg" width="25.06" height="22.276" viewBox="0 0 25.06 22.276"><path d="M2696.868,4115.477a4.909,4.909,0,0,0,3.585-1.444,5.126,5.126,0,0,0,0-7.17,5.17,5.17,0,0,0-7.17,0,5.127,5.127,0,0,0,0,7.17A4.907,4.907,0,0,0,2696.868,4115.477Zm0-1.044a3.818,3.818,0,0,1-2.837-1.149,3.969,3.969,0,1,1,5.673,0A3.817,3.817,0,0,1,2696.868,4114.433Zm-10.616,5.708a1.9,1.9,0,0,1-1.914-1.914V4102.7a1.9,1.9,0,0,1,.557-1.374,1.817,1.817,0,0,1,1.357-.575h4.455l2.576-2.889h7.17l2.575,2.889h4.455a1.819,1.819,0,0,1,1.358.575,1.9,1.9,0,0,1,.557,1.374v15.524a1.9,1.9,0,0,1-1.915,1.914Zm21.231-1.079a.834.834,0,0,0,.836-.835V4102.7a.862.862,0,0,0-.244-.609.778.778,0,0,0-.592-.261h-4.942l-2.576-2.889h-6.2l-2.575,2.889h-4.943a.78.78,0,0,0-.592.261.866.866,0,0,0-.243.609v15.524a.831.831,0,0,0,.835.835Z" transform="translate(-2684.338 -4097.865)" fill="#fff"/></svg>