<svg xmlns="http://www.w3.org/2000/svg" width="40" height="28" viewBox="0 0 40 28"><path d="M1446.193,3835.451a8.4,8.4,0,0,1-6.2-2.575,8.783,8.783,0,0,1-.05-12.325,8.233,8.233,0,0,1,5.85-2.7,11.552,11.552,0,0,1,3.875-7.425,11.358,11.358,0,0,1,7.825-2.975,11.028,11.028,0,0,1,8.3,3.5,11.779,11.779,0,0,1,3.35,8.45v2.55h1.25a6.683,6.683,0,0,1,5,1.825,6.456,6.456,0,0,1,2.05,4.925,6.548,6.548,0,0,1-1.95,4.775,6.422,6.422,0,0,1-4.75,1.975h-11.3a2.732,2.732,0,0,1-2.75-2.75v-12.85l-4.65,4.7-1.15-1.1,6.55-6.5,6.55,6.5-1.15,1.1-4.65-4.7v12.85a1.115,1.115,0,0,0,.4.825,1.23,1.23,0,0,0,.85.375h11.25a5.2,5.2,0,0,0,0-10.4h-3.1v-4.1a10.215,10.215,0,0,0-2.95-7.325,9.654,9.654,0,0,0-7.25-3.075,9.758,9.758,0,0,0-7.25,3.075,10.128,10.128,0,0,0-3,7.325h-1.05a6.829,6.829,0,0,0-5,2.1,7.062,7.062,0,0,0-2.1,5.2,7.212,7.212,0,0,0,7.2,7.2h5.95v1.55Z" transform="translate(-1437.443 -3807.451)" fill="#e47828"/></svg>