<svg xmlns="http://www.w3.org/2000/svg" width="13.943" height="24.999" viewBox="0 0 13.943 24.999"><path d="M1479.641,10770.063l.808,0c.414,0,.828.006,1.242,0h.018a1.135,1.135,0,0,1,.839.3,1.123,1.123,0,0,1,.3.829c-.005,1.224-.005,2.316,0,3.34a1.121,1.121,0,0,1-.306.845,1.157,1.157,0,0,1-.833.3c-.8.006-1.632.012-2.441.053-.549.028-.655.138-.667.686-.014.613-.011,1.223-.008,1.867q0,.18,0,.363h2.713a1.494,1.494,0,0,1,1.112.3,1.469,1.469,0,0,1,.307,1.106c0,1.252,0,2.278,0,3.229a1.353,1.353,0,0,1-.279,1,1.326,1.326,0,0,1-1,.292c-.412,0-.861,0-1.413,0-.473,0-.952,0-1.444,0v2.345q0,3.311,0,6.62a1.62,1.62,0,0,1-.3,1.206,1.6,1.6,0,0,1-1.2.308l-1.769,0c-.54,0-1.018,0-1.462,0a1.433,1.433,0,0,1-1.076-.3,1.469,1.469,0,0,1-.3-1.086c0-1.871,0-3.773,0-5.613q0-1.594,0-3.187v-.268h-1.167c-.362,0-.72,0-1.078,0a1.428,1.428,0,0,1-1.06-.277,1.411,1.411,0,0,1-.281-1.06c0-.424,0-.854,0-1.269,0-.68,0-1.382-.006-2.07a1.179,1.179,0,0,1,.3-.893,1.158,1.158,0,0,1,.874-.312h.035c.332,0,.693.008,1.134.008.406,0,.818,0,1.244,0,0-.333-.007-.647.009-.969.012-.253.019-.515.026-.769a13.684,13.684,0,0,1,.172-2.157,5.76,5.76,0,0,1,1.892-3.372,5.9,5.9,0,0,1,3.624-1.369C1478.631,10770.07,1479.071,10770.063,1479.641,10770.063Zm1.609,1.007c-.269,0-.539,0-.808,0l-.8,0c-.555,0-.982.008-1.384.025a4.657,4.657,0,0,0-4.577,3.925,12.743,12.743,0,0,0-.155,2c-.007.259-.014.526-.027.791-.014.3-.011.606-.007.932,0,.158,0,.319,0,.487v.5h-.5c-.607,0-1.183,0-1.747,0-.447,0-.812,0-1.149-.008h-.019a.132.132,0,0,0-.175.19c.01.7.008,1.4.006,2.088,0,.414,0,.842,0,1.262,0,.147,0,.258.011.329.072.007.184.011.334.012.622,0,1.243,0,1.884,0h1.357v1.268q0,1.592,0,3.187c0,1.84,0,3.741,0,5.611a2.385,2.385,0,0,0,.02.372,2.326,2.326,0,0,0,.356.02c.443,0,.919,0,1.456,0l1.766,0a3.735,3.735,0,0,0,.474-.022,3.85,3.85,0,0,0,.022-.491q0-3.311,0-6.62v-3.345h2.444c.551,0,1,0,1.408,0a2.514,2.514,0,0,0,.268-.013,2.471,2.471,0,0,0,.013-.283c0-.948,0-1.973,0-3.224a2.277,2.277,0,0,0-.022-.386,2.411,2.411,0,0,0-.4-.023h-3.709v-.5c0-.291,0-.576,0-.858,0-.651-.007-1.268.008-1.895a1.494,1.494,0,0,1,1.615-1.661c.831-.043,1.672-.049,2.485-.055a.5.5,0,0,0,.136-.015.485.485,0,0,0,.011-.12c-.005-1.028-.005-2.124,0-3.35a.468.468,0,0,0-.011-.116.477.477,0,0,0-.127-.013h-.009Z" transform="translate(-1468.903 -10770.063)" fill="#e47828"/></svg>