<svg xmlns="http://www.w3.org/2000/svg" width="18.966" height="9.934" viewBox="0 0 18.966 9.934"><path d="M2832.8,1627.552a1.192,1.192,0,0,1-.869-.372,1.221,1.221,0,0,1-.373-.892,1.184,1.184,0,0,1,.373-.881,1.208,1.208,0,0,1,.869-.361,1.472,1.472,0,0,1,.316.034,1.089,1.089,0,0,1,.316.124l4.7-4.719a1.758,1.758,0,0,1-.1-.316,1.545,1.545,0,0,1-.034-.316,1.254,1.254,0,0,1,2.134-.881,1.248,1.248,0,0,1,.35.9,3.857,3.857,0,0,1-.113.587l2.8,2.8a1.9,1.9,0,0,1,.293-.1,1.188,1.188,0,0,1,.294-.034,1.036,1.036,0,0,1,.3.045,1.862,1.862,0,0,1,.282.113l3.838-3.838a1.89,1.89,0,0,1-.113-.283,1.029,1.029,0,0,1-.045-.3,1.167,1.167,0,0,1,.373-.892,1.252,1.252,0,0,1,.892-.35,1.241,1.241,0,1,1,0,2.483,1.328,1.328,0,0,1-.3-.034,1.257,1.257,0,0,1-.283-.1l-3.838,3.838a1.294,1.294,0,0,1,.1.282,1.391,1.391,0,0,1,.034.3,1.209,1.209,0,0,1-.362.869,1.226,1.226,0,0,1-1.761,0,1.207,1.207,0,0,1-.361-.869,1.481,1.481,0,0,1,.034-.316,1.681,1.681,0,0,1,.1-.316l-2.777-2.8a1.416,1.416,0,0,1-.327.124,1.328,1.328,0,0,1-.3.034,3.7,3.7,0,0,1-.587-.113l-4.719,4.7a1.829,1.829,0,0,1,.1.3,1.278,1.278,0,0,1,.034.282,1.238,1.238,0,0,1-.362.892A1.2,1.2,0,0,1,2832.8,1627.552Z" transform="translate(-2831.559 -1617.618)" fill="#fff" opacity="0.5"/></svg>