<svg xmlns="http://www.w3.org/2000/svg" width="16.009" height="19" viewBox="0 0 16.009 19"><path d="M2616.758,3943.463a7.835,7.835,0,0,1-5.659-2.275,7.475,7.475,0,0,1-2.346-5.586,7.147,7.147,0,0,1,.649-3.074,9.849,9.849,0,0,1,1.686-2.51l5.67-5.555,5.669,5.555a9.661,9.661,0,0,1,1.686,2.543,7.216,7.216,0,0,1,.649,3.041,7.513,7.513,0,0,1-2.332,5.572A7.8,7.8,0,0,1,2616.758,3943.463Zm0-.879a6.95,6.95,0,0,0,5.037-2.039,6.651,6.651,0,0,0,2.088-4.943,6.611,6.611,0,0,0-2.05-4.891l-5.075-4.99-5.076,4.99a6.607,6.607,0,0,0-2.049,4.891,6.652,6.652,0,0,0,2.088,4.943A6.949,6.949,0,0,0,2616.758,3942.584Z" transform="translate(-2608.753 -3924.463)" fill="#fff" opacity="0.5"/></svg>