<svg xmlns="http://www.w3.org/2000/svg" width="18.133" height="23" viewBox="0 0 18.133 23"><g transform="translate(-4437.143 -3502.205)"><path d="M4438.665,3507.622c-.185,0-.326,0-.466,0a1.011,1.011,0,0,1-1.049-1.041c-.01-.342-.008-.684,0-1.025a1.016,1.016,0,0,1,1.092-1.077c1.59,0,3.18,0,4.77,0h.463c0-.211-.007-.379,0-.547a1.709,1.709,0,0,1,1.741-1.714c.656-.016,1.314-.014,1.971,0a1.711,1.711,0,0,1,1.76,1.735c.007.157,0,.314,0,.527h.444q2.344,0,4.69,0a1.047,1.047,0,0,1,1.193,1.177c0,.263,0,.525,0,.788a1.04,1.04,0,0,1-1.15,1.18c-.1,0-.207.01-.367.017v.506q0,7.056,0,14.111a2.692,2.692,0,0,1-1.734,2.732,3.42,3.42,0,0,1-1.151.2c-3.1.016-6.2.012-9.3.008a2.742,2.742,0,0,1-2.9-2.925q-.006-7.054,0-14.111Zm.791.016v.391q0,7.131,0,14.262a1.958,1.958,0,0,0,2.146,2.12q4.609,0,9.219,0a1.965,1.965,0,0,0,2.144-2.163q0-7.092,0-14.184v-.426Zm6.792-2.37c-2.442,0-4.884-.005-7.327,0-1.115,0-.974-.16-.982.98,0,.583,0,.583.594.583q7.446,0,14.891,0c1.237,0,1.047.174,1.06-1.059.006-.487-.016-.5-.515-.5Zm-1.942-.819h3.817c.138-1.053-.2-1.446-1.226-1.446h-1.418C4444.5,3503,4444.151,3503.428,4444.306,3504.449Z" fill="#fff"/><path d="M4443.351,3516.018q0-2.225,0-4.45a.917.917,0,0,1,.026-.387c.063-.123.194-.272.311-.286a.476.476,0,0,1,.374.2.865.865,0,0,1,.076.454q.006,4.47,0,8.94c0,.1.03.242-.024.306-.111.135-.273.321-.407.316a.507.507,0,0,1-.338-.365c-.041-.535-.02-1.075-.02-1.613Q4443.35,3517.573,4443.351,3516.018Z" fill="#fff"/><path d="M4449.073,3515.993q0,2.226,0,4.45a.8.8,0,0,1-.018.349c-.072.132-.206.318-.315.319a.682.682,0,0,1-.412-.258c-.063-.072-.044-.225-.044-.342q0-4.509,0-9.019a.64.64,0,0,1,.064-.377.591.591,0,0,1,.4-.218c.108.005.239.172.3.3a.948.948,0,0,1,.024.388Q4449.075,3513.788,4449.073,3515.993Z" fill="#fff"/></g></svg>