<svg xmlns="http://www.w3.org/2000/svg" width="11.667" height="15" viewBox="0 0 11.667 15"><path d="M2785.644,1620.147h7.292v-1.833a2.477,2.477,0,0,0-.761-1.833,2.641,2.641,0,0,0-3.687,0,2.476,2.476,0,0,0-.761,1.833h-.625a3.23,3.23,0,1,1,6.459,0v1.833h1.458a1.119,1.119,0,0,1,.8.334,1.089,1.089,0,0,1,.344.812v7.646a1.176,1.176,0,0,1-1.146,1.146h-9.375a1.176,1.176,0,0,1-1.146-1.146v-7.646a1.089,1.089,0,0,1,.344-.812A1.117,1.117,0,0,1,2785.644,1620.147Zm0,9.292h9.375a.5.5,0,0,0,.5-.5v-7.646a.5.5,0,0,0-.5-.5h-9.375a.5.5,0,0,0-.5.5v7.646a.5.5,0,0,0,.5.5Zm4.687-3.1a1.2,1.2,0,0,0,.865-.354,1.148,1.148,0,0,0,.365-.854,1.2,1.2,0,0,0-.365-.855,1.184,1.184,0,0,0-1.729,0,1.2,1.2,0,0,0-.365.855,1.148,1.148,0,0,0,.365.854A1.2,1.2,0,0,0,2790.331,1626.335Zm-5.187,3.1v0Z" transform="translate(-2784.498 -1615.085)" fill="#fff" opacity="0.5"/></svg>