<svg xmlns="http://www.w3.org/2000/svg" width="10.962" height="8" viewBox="0 0 10.962 8"><path d="M5724.259,3090.787a4.035,4.035,0,0,1-4-4v-.562l-1,1-.487-.488,1.862-1.862,1.863,1.862-.488.488-1-1v.562a3.266,3.266,0,0,0,3.25,3.25,3.613,3.613,0,0,0,.688-.062,2.882,2.882,0,0,0,.612-.188l.538.538a3.489,3.489,0,0,1-.906.356A4.087,4.087,0,0,1,5724.259,3090.787Zm3.613-2.112-1.863-1.863.5-.5.988.988v-.513a3.266,3.266,0,0,0-3.25-3.25,3.314,3.314,0,0,0-.688.069,5.053,5.053,0,0,0-.612.169l-.538-.538a3.366,3.366,0,0,1,.907-.35,4.383,4.383,0,0,1,.931-.1,4.034,4.034,0,0,1,4,4v.538l1-1,.487.487Z" transform="translate(-5718.772 -3082.787)" fill="#fff"/></svg>