<svg xmlns="http://www.w3.org/2000/svg" width="20" height="20" viewBox="0 0 20 20"><g transform="translate(-1366.042 -483.721)"><path d="M1385.847,491.762h-.805v-.041h-9v4h5.651a6,6,0,1,1-1.671-6.481l2.829-2.828a9.974,9.974,0,1,0,3,5.35Z" fill="#ffc107"/><path d="M1367.195,489.066l3.285,2.41a5.988,5.988,0,0,1,9.542-2.236l2.829-2.828a9.981,9.981,0,0,0-15.656,2.654Z" fill="#ff3d00"/><path d="M1376.042,503.721a9.953,9.953,0,0,0,6.7-2.6l-3.095-2.619a5.984,5.984,0,0,1-9.251-2.758l-3.261,2.512A9.992,9.992,0,0,0,1376.042,503.721Z" fill="#4caf50"/><path d="M1385.847,491.762h-.805v-.041h-9v4h5.651a6.018,6.018,0,0,1-2.043,2.785h0l3.095,2.619a9.671,9.671,0,0,0,3.3-7.4A10.036,10.036,0,0,0,1385.847,491.762Z" fill="#1976d2"/></g></svg>