<svg xmlns="http://www.w3.org/2000/svg" width="24" height="27.307" viewBox="0 0 24 27.307"><path d="M4358.627,4169.893l-9.449-5.528a2.951,2.951,0,0,1-.9-.921,2.456,2.456,0,0,1-.33-1.3V4151.09a2.531,2.531,0,0,1,.33-1.252,2.786,2.786,0,0,1,.9-.969l9.5-5.527a2.342,2.342,0,0,1,2.551,0l9.5,5.527a2.789,2.789,0,0,1,.9.969,2.533,2.533,0,0,1,.331,1.252v11.055a2.6,2.6,0,0,1-.307,1.3,2.5,2.5,0,0,1-.969.921l-9.5,5.528a2.61,2.61,0,0,1-1.3.378A2.364,2.364,0,0,1,4358.627,4169.893Zm.8-.756v-12.283l-10.441-5.906v11.2a1.4,1.4,0,0,0,.189.709,1.63,1.63,0,0,0,.567.567Zm1.039,0,9.685-5.716a1.631,1.631,0,0,0,.567-.567,1.408,1.408,0,0,0,.189-.709v-11.2l-10.441,5.906Zm-.519-13.181,10.441-6-9.685-5.622a1.607,1.607,0,0,0-1.512,0l-9.685,5.622Z" transform="translate(-4347.95 -4142.964)" fill="#fff"/></svg>