<svg xmlns="http://www.w3.org/2000/svg" width="16" height="19.429" viewBox="0 0 16 19.429"><path d="M1331.616,10792.276a1.562,1.562,0,0,1-1.128-.457,1.493,1.493,0,0,1-.472-1.114v-13.571h.886v13.571a.789.789,0,0,0,.714.714h10.029v.857Zm2.886-2.886a1.515,1.515,0,0,1-1.114-.457,1.55,1.55,0,0,1-.458-1.143v-13.343a1.564,1.564,0,0,1,.458-1.129,1.491,1.491,0,0,1,1.114-.472h9.943a1.493,1.493,0,0,1,1.114.472,1.563,1.563,0,0,1,.457,1.129v13.343a1.549,1.549,0,0,1-.457,1.143,1.516,1.516,0,0,1-1.114.457Zm0-.886h9.943a.7.7,0,0,0,.485-.214.663.663,0,0,0,.229-.5v-13.343a.791.791,0,0,0-.714-.714H1334.5a.637.637,0,0,0-.472.228.706.706,0,0,0-.214.486v13.343a.688.688,0,0,0,.214.5A.656.656,0,0,0,1334.5,10788.5Zm-.686,0v0Z" transform="translate(-1330.016 -10772.848)" fill="#e47828"/></svg>