<svg xmlns="http://www.w3.org/2000/svg" width="23.011" height="23.171" viewBox="0 0 23.011 23.171"><g transform="translate(-982.915 -617.69)"><path d="M1556.309,10782.72a11.106,11.106,0,0,1-9.079,10.933,11.273,11.273,0,0,1-7.93-1.335.734.734,0,0,0-.74-.043c-1.421.617-2.844,1.23-4.281,1.81a1.037,1.037,0,0,1-.784-.027c-.294-.158-.2-.488-.094-.771.557-1.494,1.1-2.992,1.668-4.483a.733.733,0,0,0-.066-.708,11.278,11.278,0,0,1,2.263-14.441,10.577,10.577,0,0,1,8.787-2.537c5.095.784,8.317,3.778,9.838,8.66a5.833,5.833,0,0,1,.206.971C1556.181,10781.4,1556.24,10782.062,1556.309,10782.72Zm-21.429,9.87c.2-.067.312-.1.417-.144,1.039-.439,2.087-.86,3.112-1.33a1.148,1.148,0,0,1,1.212.083,10.143,10.143,0,0,0,7.684,1.317,9.984,9.984,0,0,0,7.634-11.757,10.592,10.592,0,0,0-13.147-8.273,10.037,10.037,0,0,0-7.23,8.446,10.554,10.554,0,0,0,1.634,6.938.914.914,0,0,1,.095.895c-.271.7-.531,1.407-.792,2.112C1535.3,10791.421,1535.1,10791.967,1534.88,10792.59Z" transform="translate(-550.383 -10153.286)" fill="#e47828"/><path d="M1538.036,10779.353c-.141-1.62,1.586-3.2,2.686-3.507a1.188,1.188,0,0,1,1.32.458c.529.822,1.045,1.655,1.512,2.514a1.116,1.116,0,0,1-.272,1.544,8.785,8.785,0,0,1-.86.73.366.366,0,0,0-.115.541,8.724,8.724,0,0,0,3.437,3.435.379.379,0,0,0,.544-.127,11.529,11.529,0,0,1,.868-.98.948.948,0,0,1,1.162-.236c.972.538,1.937,1.1,2.864,1.707a1.18,1.18,0,0,1,.22,1.533,3.789,3.789,0,0,1-4.661,2.194,12.028,12.028,0,0,1-6.537-4.5,9.862,9.862,0,0,1-2.084-4.5C1538.077,10779.894,1538.063,10779.622,1538.036,10779.353Zm10.03,8.851a2.885,2.885,0,0,0,2.325-1.751.376.376,0,0,0-.146-.311c-.661-.419-1.339-.811-2-1.229-.249-.158-.4-.091-.57.116-.254.316-.517.628-.792.927a.993.993,0,0,1-1.187.286,6.7,6.7,0,0,1-1.015-.479,9.52,9.52,0,0,1-2.573-2.381,8.27,8.27,0,0,1-.883-1.459,1.146,1.146,0,0,1,.394-1.628c.228-.2.457-.394.7-.572a.4.4,0,0,0,.121-.638c-.377-.581-.75-1.167-1.076-1.776-.2-.383-.413-.395-.749-.189a2.7,2.7,0,0,0-1.252,3.452,11.144,11.144,0,0,0,4.838,6.257A7.745,7.745,0,0,0,1548.066,10788.2Z" transform="translate(-550.383 -10153.286)" fill="#e47828"/></g></svg>