<svg xmlns="http://www.w3.org/2000/svg" width="20" height="13.098" viewBox="0 0 20 13.098"><g transform="translate(-2803.841 -1549.711)"><path d="M2813.841,1559.837a3.59,3.59,0,1,0-2.519-1.045A3.43,3.43,0,0,0,2813.841,1559.837Zm0-.806a2.651,2.651,0,0,1-1.964-.819,2.683,2.683,0,0,1-.807-1.952,2.655,2.655,0,0,1,.819-1.965,2.689,2.689,0,0,1,1.952-.806,2.651,2.651,0,0,1,1.965.819,2.688,2.688,0,0,1,.806,1.952,2.651,2.651,0,0,1-.819,1.965A2.685,2.685,0,0,1,2813.841,1559.031Zm0,3.778a10.47,10.47,0,0,1-5.932-1.788,4.819,4.819,0,0,1,0-9.521,10.73,10.73,0,0,1,11.864,0,4.819,4.819,0,0,1,0,9.521A10.464,10.464,0,0,1,2813.841,1562.809Zm0-.781a9.866,9.866,0,0,0,5.4-1.561,4.232,4.232,0,0,0,0-8.413,10.125,10.125,0,0,0-10.806,0,4.232,4.232,0,0,0,0,8.413A9.871,9.871,0,0,0,2813.841,1562.028Z" fill="#e47828"/></g></svg>