<svg xmlns="http://www.w3.org/2000/svg" width="16.408" height="19" viewBox="0 0 16.408 19"><path d="M2609.455,3866.264a7.258,7.258,0,0,0,4.336,6.656,3.63,3.63,0,0,1-.549-1.909,3.2,3.2,0,0,1,.272-1.308,3.639,3.639,0,0,1,.767-1.111l2.477-2.441,2.5,2.441a3.485,3.485,0,0,1,.755,1.111,3.328,3.328,0,0,1,.262,1.308,3.646,3.646,0,0,1-.55,1.909,7.259,7.259,0,0,0,4.336-6.656,7.316,7.316,0,0,0-.606-2.922,8.079,8.079,0,0,0-1.731-2.532,4.7,4.7,0,0,1-1.256.632,4.379,4.379,0,0,1-5.76-4.04v-.271a15.824,15.824,0,0,0-2.218,2.049,13.371,13.371,0,0,0-1.655,2.289,11.221,11.221,0,0,0-1.025,2.405A8.552,8.552,0,0,0,2609.455,3866.264Zm7.3,1.154-1.855,1.826a2.635,2.635,0,0,0-.563.818,2.357,2.357,0,0,0-.2.949,2.441,2.441,0,0,0,.76,1.811,2.681,2.681,0,0,0,3.709,0,2.524,2.524,0,0,0,.563-2.783,2.386,2.386,0,0,0-.563-.8Zm-1.172-11.95v1.772a3.378,3.378,0,0,0,1.026,2.5,3.454,3.454,0,0,0,2.519,1.012,3.172,3.172,0,0,0,1.072-.186,3.717,3.717,0,0,0,.986-.536l.5-.4a7.886,7.886,0,0,1,2.4,2.9,8.331,8.331,0,0,1,.866,3.728,8.2,8.2,0,1,1-16.408,0,10.848,10.848,0,0,1,1.877-5.926A15.291,15.291,0,0,1,2615.586,3855.468Z" transform="translate(-2608.554 -3855.468)" fill="#fff" opacity="0.5"/></svg>