<svg xmlns="http://www.w3.org/2000/svg" width="12.617" height="14" viewBox="0 0 12.617 14"><path d="M2889.758,1563.26a2,2,0,0,1-2-1.995,1.841,1.841,0,0,1,.027-.289,1.551,1.551,0,0,1,.078-.306l-5.3-3.08a1.98,1.98,0,0,1-.648.481,1.8,1.8,0,0,1-.787.184,2,2,0,1,1,.77-3.832,2.1,2.1,0,0,1,.665.455l5.3-3.045a1.2,1.2,0,0,1-.078-.28,1.757,1.757,0,0,1-.027-.3,1.911,1.911,0,0,1,.587-1.417,2,2,0,0,1,2.826,2.826,1.912,1.912,0,0,1-1.418.586,2.357,2.357,0,0,1-.778-.131,1.493,1.493,0,0,1-.639-.429l-5.3,2.94a3.23,3.23,0,0,1,.062.324,2.336,2.336,0,0,1,.026.306,1.493,1.493,0,0,1-.026.263c-.018.093-.038.186-.062.28l5.3,3.01a2,2,0,0,1,1.417-.543,2,2,0,1,1,0,3.99Zm0-11.06a.927.927,0,1,0-.673-.271A.913.913,0,0,0,2889.758,1552.2Zm-8.627,5.005a.926.926,0,1,0-.674-.271A.915.915,0,0,0,2881.131,1557.2Zm8.627,5.005a.927.927,0,1,0-.673-.271A.913.913,0,0,0,2889.758,1562.21Z" transform="translate(-2879.136 -1549.26)" fill="#fff"/></svg>