<svg xmlns="http://www.w3.org/2000/svg" width="21.708" height="15" viewBox="0 0 21.708 15"><g transform="translate(-621.55 -7024.717)"><path d="M621.55,7039.717v-1.67a2.293,2.293,0,0,1,.417-1.382,2.9,2.9,0,0,1,1.166-.921,24.259,24.259,0,0,1,3.052-1.123,12.594,12.594,0,0,1,3.426-.4,12.44,12.44,0,0,1,3.412.4,26.177,26.177,0,0,1,3.066,1.123,3.048,3.048,0,0,1,1.151.921,2.237,2.237,0,0,1,.432,1.382v1.67Zm18.138,0V7038.1a4.244,4.244,0,0,0-.5-2.145,4.863,4.863,0,0,0-1.31-1.483,18.328,18.328,0,0,1,2.073.518,12.105,12.105,0,0,1,1.756.691,3.162,3.162,0,0,1,1.123,1.008,2.449,2.449,0,0,1,.432,1.411v1.612Zm-10.077-8.349a3.248,3.248,0,0,1-3.34-3.34,3.193,3.193,0,0,1,.95-2.375,3.267,3.267,0,0,1,2.39-.936,3.2,3.2,0,0,1,3.311,3.311,3.268,3.268,0,0,1-.936,2.39A3.194,3.194,0,0,1,629.611,7031.368Zm7.831-3.34a3.267,3.267,0,0,1-.936,2.39,3.192,3.192,0,0,1-2.375.95.6.6,0,0,1-.144-.015.515.515,0,0,0-.115-.014,4.744,4.744,0,0,0,.806-1.468,5.533,5.533,0,0,0,.288-1.814,5.058,5.058,0,0,0-.3-1.785,7.228,7.228,0,0,0-.792-1.526.92.92,0,0,0,.115-.014.908.908,0,0,1,.144-.015,3.2,3.2,0,0,1,3.311,3.311Zm-15.029,10.8H636.78v-.778a1.441,1.441,0,0,0-.259-.835,2.409,2.409,0,0,0-.835-.691,12.875,12.875,0,0,0-2.879-1.094,16.324,16.324,0,0,0-6.392,0,12.875,12.875,0,0,0-2.879,1.094,2.369,2.369,0,0,0-.864.691,1.441,1.441,0,0,0-.259.835Zm7.2-8.35a2.361,2.361,0,0,0,2.418-2.418,2.392,2.392,0,0,0-.691-1.742,2.319,2.319,0,0,0-1.727-.705,2.408,2.408,0,0,0-2.447,2.447,2.318,2.318,0,0,0,.705,1.727A2.391,2.391,0,0,0,629.611,7030.475Z" fill="#e47828"/></g></svg>