<svg xmlns="http://www.w3.org/2000/svg" width="17.493" height="22.491" viewBox="0 0 17.493 22.491"><path d="M2786.216,1622.675h10.934v-2.749a3.713,3.713,0,0,0-1.141-2.748,3.96,3.96,0,0,0-5.528,0,3.713,3.713,0,0,0-1.141,2.748h-.937a4.842,4.842,0,1,1,9.685,0v2.749h2.186a1.677,1.677,0,0,1,1.2.5,1.633,1.633,0,0,1,.516,1.218v11.464a1.763,1.763,0,0,1-1.718,1.718h-14.057a1.763,1.763,0,0,1-1.718-1.718v-11.464a1.633,1.633,0,0,1,.516-1.218A1.675,1.675,0,0,1,2786.216,1622.675Zm0,13.932h14.057a.748.748,0,0,0,.75-.75v-11.464a.748.748,0,0,0-.75-.75h-14.057a.747.747,0,0,0-.75.75v11.464a.747.747,0,0,0,.75.75Zm7.028-4.654a1.8,1.8,0,0,0,1.3-.531,1.722,1.722,0,0,0,.547-1.281,1.792,1.792,0,0,0-.547-1.282,1.775,1.775,0,0,0-2.592,0,1.792,1.792,0,0,0-.547,1.282,1.722,1.722,0,0,0,.547,1.281A1.8,1.8,0,0,0,2793.244,1631.953Zm-7.777,4.654v0Z" transform="translate(-2784.498 -1615.085)" fill="#fff" opacity="0.5"/></svg>