<svg xmlns="http://www.w3.org/2000/svg" width="49.961" height="40.042" viewBox="0 0 49.961 40.042"><g transform="translate(-625.027 -6892.174)"><path d="M646.547,6909.927a8.522,8.522,0,0,1-6.341-2.536,8.84,8.84,0,1,1,12.681,0A8.521,8.521,0,0,1,646.547,6909.927Zm-21.52,22.289v-4.458a6.017,6.017,0,0,1,1.153-3.651,8.035,8.035,0,0,1,3.074-2.5,52.378,52.378,0,0,1,8.838-3.035,34.947,34.947,0,0,1,16.909,0,52.379,52.379,0,0,1,8.838,3.035,8.035,8.035,0,0,1,3.074,2.5,6.017,6.017,0,0,1,1.153,3.651v4.458Z" fill="#fff" opacity="0.3"/><g opacity="0.5"><path d="M.5,6.923h-1V0h1Z" transform="translate(671.528 6907.733)" fill="#fff"/><path d="M6.922.5H0v-1H6.922Z" transform="translate(668.066 6911.194)" fill="#fff"/></g></g></svg>