<svg xmlns="http://www.w3.org/2000/svg" width="18.9" height="16.8" viewBox="0 0 18.9 16.8"><path d="M2616.758,3660.431a3.7,3.7,0,0,0,2.7-1.089,3.866,3.866,0,0,0,0-5.408,3.807,3.807,0,0,0-6.51,2.717,3.634,3.634,0,0,0,1.1,2.691A3.7,3.7,0,0,0,2616.758,3660.431Zm0-.787a2.879,2.879,0,0,1-2.14-.867,2.993,2.993,0,1,1,4.279,0A2.878,2.878,0,0,1,2616.758,3659.644Zm-8.007,4.3a1.434,1.434,0,0,1-1.443-1.444V3650.8a1.435,1.435,0,0,1,.42-1.036,1.371,1.371,0,0,1,1.023-.434h3.36l1.943-2.178h5.407l1.943,2.178h3.36a1.373,1.373,0,0,1,1.024.434,1.435,1.435,0,0,1,.42,1.036V3662.5a1.434,1.434,0,0,1-1.444,1.444Zm16.013-.814a.629.629,0,0,0,.63-.63V3650.8a.649.649,0,0,0-.184-.459.588.588,0,0,0-.446-.2h-3.728l-1.942-2.179h-4.673l-1.942,2.179h-3.728a.589.589,0,0,0-.446.2.654.654,0,0,0-.184.459V3662.5a.628.628,0,0,0,.63.63Z" transform="translate(-2607.308 -3647.149)" fill="#fff" opacity="0.5"/></svg>