<svg xmlns="http://www.w3.org/2000/svg" width="25.958" height="17" viewBox="0 0 25.958 17"><path d="M1269.087,10787.2a4.66,4.66,0,1,0-3.269-1.356A4.447,4.447,0,0,0,1269.087,10787.2Zm0-1.046a3.443,3.443,0,0,1-2.55-1.062,3.489,3.489,0,0,1-1.046-2.534,3.446,3.446,0,0,1,1.062-2.55,3.492,3.492,0,0,1,2.534-1.046,3.443,3.443,0,0,1,2.55,1.063,3.488,3.488,0,0,1,1.046,2.533,3.443,3.443,0,0,1-1.062,2.551A3.488,3.488,0,0,1,1269.087,10786.158Zm0,4.9a13.588,13.588,0,0,1-7.7-2.32,6.256,6.256,0,0,1,0-12.358,13.928,13.928,0,0,1,15.4,0,6.256,6.256,0,0,1,0,12.358A13.586,13.586,0,0,1,1269.087,10791.062Zm0-1.013a12.814,12.814,0,0,0,7.013-2.026,5.494,5.494,0,0,0,0-10.921,13.152,13.152,0,0,0-14.025,0,5.494,5.494,0,0,0,0,10.921A12.811,12.811,0,0,0,1269.087,10790.049Z" transform="translate(-1256.108 -10774.062)" fill="#e47828"/></svg>