<svg xmlns="http://www.w3.org/2000/svg" width="7.443" height="12.663" viewBox="0 0 7.443 12.663"><g transform="translate(-2700.473 -4216.117)"><path d="M2703.238,4217.5a1.383,1.383,0,1,1-1.384-1.383A1.383,1.383,0,0,1,2703.238,4217.5Z" fill="#e47828"/><path d="M2703.238,4222.449a1.383,1.383,0,1,1-1.384-1.383A1.384,1.384,0,0,1,2703.238,4222.449Z" fill="#e47828"/><path d="M2703.238,4227.4a1.383,1.383,0,1,1-1.384-1.382A1.384,1.384,0,0,1,2703.238,4227.4Z" fill="#e47828"/><path d="M2707.916,4217.5a1.383,1.383,0,1,1-1.383-1.383A1.383,1.383,0,0,1,2707.916,4217.5Z" fill="#e47828"/><path d="M2707.916,4222.449a1.383,1.383,0,1,1-1.383-1.383A1.384,1.384,0,0,1,2707.916,4222.449Z" fill="#e47828"/><path d="M2707.916,4227.4a1.383,1.383,0,1,1-1.383-1.382A1.384,1.384,0,0,1,2707.916,4227.4Z" fill="#e47828"/></g></svg>