<svg xmlns="http://www.w3.org/2000/svg" width="15.998" height="16" viewBox="0 0 15.998 16"><path d="M662.467,7032.221q0-3.075,0-6.151a4.028,4.028,0,0,1,.015-.425,1.591,1.591,0,0,1,1.475-1.418c.111-.007.223,0,.335,0q5.1,0,10.2-.005a1,1,0,0,1,.781.318c.959.978,1.931,1.945,2.905,2.908a.872.872,0,0,1,.286.671q-.009,5.207-.005,10.414a1.584,1.584,0,0,1-1.168,1.622,2.611,2.611,0,0,1-.663.064q-4.248.006-8.5,0c-1.289,0-2.578,0-3.867,0a2.69,2.69,0,0,1-.575-.049,1.57,1.57,0,0,1-1.208-1.368,4.333,4.333,0,0,1-.016-.456Q662.466,7035.28,662.467,7032.221Zm13.324,6.9a1.212,1.212,0,0,0,.141.022c.264,0,.528,0,.791,0,.481,0,.662-.183.67-.66,0-.1,0-.2,0-.3V7029.9c0-.507,0-1.015,0-1.522a.446.446,0,0,0-.143-.35c-.872-.865-1.738-1.735-2.609-2.6a.372.372,0,0,0-.2-.126c-.25-.015-.5-.006-.787-.006v.361c0,.913-.018,1.827.006,2.74a1.1,1.1,0,0,1-1.163,1.159c-.324-.009-.649,0-.974,0-1.025,0-2.05,0-3.075,0a1.157,1.157,0,0,1-.864-.307,1.139,1.139,0,0,1-.329-.856q0-1.37,0-2.74v-.345c-.132-.007-.231-.016-.33-.017-.3,0-.609,0-.913,0-.589,0-1.178,0-1.766,0-.546,0-.714.168-.717.7v12.392a2.278,2.278,0,0,0,.006.274.5.5,0,0,0,.442.473c.371.022.744.006,1.146.006v-.357c0-1.086,0-2.172,0-3.258a1.6,1.6,0,0,1,1.694-1.705q3.639-.01,7.277,0a2.074,2.074,0,0,1,.541.067,1.563,1.563,0,0,1,1.147,1.544c.007,1.116,0,2.233,0,3.349Zm-1.077.015c.008-.077.018-.126.018-.174,0-1.157,0-2.313,0-3.469a.548.548,0,0,0-.63-.609q-3.636,0-7.272,0c-.426,0-.621.191-.622.609,0,1.146,0,2.292,0,3.438a1.447,1.447,0,0,0,.031.205Zm-6.358-10.674h4.225v-3.157h-4.225Z" transform="translate(-662.467 -7024.217)" fill="#e47828"/></svg>