<svg xmlns="http://www.w3.org/2000/svg" width="274.75" height="50.26" viewBox="0 0 274.75 50.26"><path d="M28.91,0l-9.8-18.2H17.64V0H3.92V-49.35H25.55a22.368,22.368,0,0,1,10.08,2.065,14.465,14.465,0,0,1,6.23,5.67,15.765,15.765,0,0,1,2.1,8.085,14.692,14.692,0,0,1-2.765,8.855A14.941,14.941,0,0,1,33.11-19.25L44.24,0ZM17.64-27.58h6.79a5.892,5.892,0,0,0,4.2-1.33,5.06,5.06,0,0,0,1.4-3.85,4.922,4.922,0,0,0-1.435-3.745A5.817,5.817,0,0,0,24.43-37.87H17.64ZM63.91-38.36v8.05H79.66v10.43H63.91v8.89H81.76V0H50.19V-49.35H81.76v10.99ZM119.77-8.05h-17.5L99.61,0H85.19l17.99-49.35H119L136.92,0H122.43Zm-3.43-10.5-5.32-15.96-5.25,15.96Zm38.78,8.05h15.33V0H141.4V-49.35h13.72Zm57.82-38.85v10.92H199.78V0H186.06V-38.43H173.04V-49.35Zm8.54.07V0h-1.4V-49.28ZM255.15.56A23.3,23.3,0,0,1,243-2.625a22.064,22.064,0,0,1-8.365-8.925,27.611,27.611,0,0,1-3.01-13.02,27.611,27.611,0,0,1,3.01-13.02A22.064,22.064,0,0,1,243-46.515,23.3,23.3,0,0,1,255.15-49.7a23.3,23.3,0,0,1,12.145,3.185,22.064,22.064,0,0,1,8.365,8.925,27.612,27.612,0,0,1,3.01,13.02,27.612,27.612,0,0,1-3.01,13.02,22.064,22.064,0,0,1-8.365,8.925A23.3,23.3,0,0,1,255.15.56Zm0-1.26a22.023,22.023,0,0,0,11.2-2.905,20.58,20.58,0,0,0,7.945-8.33,26.369,26.369,0,0,0,2.9-12.635,26.369,26.369,0,0,0-2.9-12.635,20.58,20.58,0,0,0-7.945-8.33,22.023,22.023,0,0,0-11.2-2.9,22.023,22.023,0,0,0-11.2,2.9A20.58,20.58,0,0,0,236-37.2a26.37,26.37,0,0,0-2.9,12.635A26.37,26.37,0,0,0,236-11.935a20.58,20.58,0,0,0,7.945,8.33A22.023,22.023,0,0,0,255.15-.7Z" transform="translate(-3.92 49.7)" fill="#e47828"/></svg>