<svg xmlns="http://www.w3.org/2000/svg" width="130.796" height="23.313" viewBox="0 0 130.796 23.313"><path d="M13.592-5.267l-4.331-8.27H9.228v8.27H2V-28.32H12.745a10.606,10.606,0,0,1,4.786.993,6.9,6.9,0,0,1,2.979,2.7,7.539,7.539,0,0,1,.993,3.858,6.855,6.855,0,0,1-1.286,4.1,7.069,7.069,0,0,1-3.7,2.572l5.014,8.824ZM9.228-18.356h2.865a2.262,2.262,0,0,0,1.563-.472,1.906,1.906,0,0,0,.521-1.482,1.9,1.9,0,0,0-.537-1.433,2.133,2.133,0,0,0-1.547-.521H9.228Zm21.816-4.2v2.833h7.163v5.438H31.044v3.256h8.14v5.763H23.816V-28.32H39.184v5.763ZM56.7-8.751H49.018l-1.14,3.484H40.291L48.725-28.32H57.06l8.4,23.053H57.842Zm-1.758-5.438L52.86-20.6l-2.084,6.414Zm19.374,3.451h6.968v5.47h-14.2V-28.32h7.228ZM101.668-28.32v5.731H95.547V-5.267H88.318V-22.589H82.262V-28.32Zm4.461.2V-5.267h-1.465V-28.125ZM121.693-5.007A11.1,11.1,0,0,1,116-6.488a10.382,10.382,0,0,1-3.972-4.151,12.536,12.536,0,0,1-1.433-6.024,12.511,12.511,0,0,1,1.433-6.04A10.409,10.409,0,0,1,116-26.838a11.1,11.1,0,0,1,5.7-1.482,11.1,11.1,0,0,1,5.7,1.482,10.409,10.409,0,0,1,3.972,4.135,12.511,12.511,0,0,1,1.433,6.04,12.536,12.536,0,0,1-1.433,6.024,10.382,10.382,0,0,1-3.972,4.151A11.1,11.1,0,0,1,121.693-5.007Zm0-1.3a9.529,9.529,0,0,0,4.884-1.27,8.974,8.974,0,0,0,3.435-3.614,11.431,11.431,0,0,0,1.254-5.47,11.5,11.5,0,0,0-1.254-5.5,8.974,8.974,0,0,0-3.435-3.614,9.529,9.529,0,0,0-4.884-1.27,9.529,9.529,0,0,0-4.884,1.27,9.084,9.084,0,0,0-3.451,3.614,11.382,11.382,0,0,0-1.27,5.5,11.311,11.311,0,0,0,1.27,5.47,9.084,9.084,0,0,0,3.451,3.614A9.529,9.529,0,0,0,121.693-6.309Z" transform="translate(-2 28.32)" fill="#fff"/></svg>