<svg xmlns="http://www.w3.org/2000/svg" xmlns:xlink="http://www.w3.org/1999/xlink" width="34.19" height="34.19" viewBox="0 0 34.19 34.19"><defs><clipPath id="b"><rect width="34.19" height="34.19"/></clipPath></defs><g id="a" clip-path="url(#b)"><rect width="34.19" height="34.19" fill="#a6a6a6"/><g transform="translate(-2259.492 -2262.009)"><path d="M2271.5,2288.814l-5.1,2.782a4.674,4.674,0,0,0-.82.581,17.081,17.081,0,0,0,21.951.058,4.377,4.377,0,0,0-.9-.6l-5.462-2.731a2.083,2.083,0,0,1-1.151-1.865V2284.9a8.194,8.194,0,0,0,.516-.665,12.591,12.591,0,0,0,1.7-3.421,1.715,1.715,0,0,0,1.216-1.632v-2.288a1.71,1.71,0,0,0-.571-1.267v-3.307s.679-5.145-6.29-5.145-6.289,5.145-6.289,5.145v3.307a1.7,1.7,0,0,0-.571,1.267v2.288a1.712,1.712,0,0,0,.79,1.439,11.364,11.364,0,0,0,2.068,4.279v2.091A2.084,2.084,0,0,1,2271.5,2288.814Z" fill="#e9edee"/></g><ellipse cx="17.098" cy="9" rx="17.098" ry="9" transform="matrix(1, 0.017, -0.017, 1, 0.157, 26.678)" fill="#e8edee"/></g></svg>